<mxfile host="app.diagrams.net" agent="Mozilla/5.0 (Windows NT 10.0; Win64; x64) AppleWebKit/537.36 (KHTML, like Gecko) Chrome/130.0.0.0 Safari/537.36 Edg/130.0.0.0" version="24.8.0">
  <diagram name="Page-1" id="CPyDFV8L7SZRZxLi2ErN">
    <mxGraphModel dx="5293" dy="3487" grid="1" gridSize="10" guides="1" tooltips="1" connect="1" arrows="1" fold="1" page="1" pageScale="1" pageWidth="827" pageHeight="1169" math="0" shadow="0">
      <root>
        <mxCell id="0" />
        <mxCell id="1" parent="0" />
        <mxCell id="bAM_NPrAEhgNnZ6bfNZo-4" value="Use" style="swimlane;whiteSpace=wrap" parent="1" vertex="1">
          <mxGeometry x="590" y="1042" width="280" height="932" as="geometry" />
        </mxCell>
        <mxCell id="bAM_NPrAEhgNnZ6bfNZo-5" value="" style="ellipse;shape=startState;fillColor=#000000;strokeColor=#ff0000;" parent="bAM_NPrAEhgNnZ6bfNZo-4" vertex="1">
          <mxGeometry x="118" y="40" width="30" height="30" as="geometry" />
        </mxCell>
        <mxCell id="bAM_NPrAEhgNnZ6bfNZo-6" value="" style="edgeStyle=elbowEdgeStyle;elbow=horizontal;verticalAlign=bottom;endArrow=open;endSize=8;strokeColor=#000000;endFill=1;rounded=0" parent="bAM_NPrAEhgNnZ6bfNZo-4" source="bAM_NPrAEhgNnZ6bfNZo-5" target="bAM_NPrAEhgNnZ6bfNZo-7" edge="1">
          <mxGeometry x="100" y="40" as="geometry">
            <mxPoint x="115" y="110" as="targetPoint" />
          </mxGeometry>
        </mxCell>
        <mxCell id="bAM_NPrAEhgNnZ6bfNZo-7" value="Access &#39;Record Dietary &#xa;Information&#39; page" style="rounded=1;" parent="bAM_NPrAEhgNnZ6bfNZo-4" vertex="1">
          <mxGeometry x="63" y="110" width="140" height="50" as="geometry" />
        </mxCell>
        <mxCell id="bAM_NPrAEhgNnZ6bfNZo-181" value="Fill in dietary information&#xa;(meal photo,food type,&#xa;quantity)" style="rounded=1;" parent="bAM_NPrAEhgNnZ6bfNZo-4" vertex="1">
          <mxGeometry x="63" y="198" width="140" height="50" as="geometry" />
        </mxCell>
        <mxCell id="bAM_NPrAEhgNnZ6bfNZo-182" value="Submitted the record &#xa;or not" style="rounded=1;" parent="bAM_NPrAEhgNnZ6bfNZo-4" vertex="1">
          <mxGeometry x="63" y="278" width="140" height="50" as="geometry" />
        </mxCell>
        <mxCell id="bAM_NPrAEhgNnZ6bfNZo-185" value="" style="rhombus;whiteSpace=wrap;html=1;rounded=0;" parent="bAM_NPrAEhgNnZ6bfNZo-4" vertex="1">
          <mxGeometry x="118" y="358" width="30" height="40" as="geometry" />
        </mxCell>
        <mxCell id="bAM_NPrAEhgNnZ6bfNZo-187" value="" style="edgeStyle=elbowEdgeStyle;elbow=horizontal;verticalAlign=bottom;endArrow=open;endSize=8;strokeColor=#000000;endFill=1;rounded=0;exitX=0.5;exitY=1;exitDx=0;exitDy=0;entryX=0.5;entryY=0;entryDx=0;entryDy=0;" parent="bAM_NPrAEhgNnZ6bfNZo-4" source="bAM_NPrAEhgNnZ6bfNZo-7" target="bAM_NPrAEhgNnZ6bfNZo-181" edge="1">
          <mxGeometry x="-490" y="-1002" as="geometry">
            <mxPoint x="125" y="120" as="targetPoint" />
            <mxPoint x="125" y="80" as="sourcePoint" />
          </mxGeometry>
        </mxCell>
        <mxCell id="bAM_NPrAEhgNnZ6bfNZo-188" value="" style="edgeStyle=elbowEdgeStyle;elbow=horizontal;verticalAlign=bottom;endArrow=open;endSize=8;strokeColor=#000000;endFill=1;rounded=0;exitX=0.5;exitY=1;exitDx=0;exitDy=0;entryX=0.5;entryY=0;entryDx=0;entryDy=0;" parent="bAM_NPrAEhgNnZ6bfNZo-4" source="bAM_NPrAEhgNnZ6bfNZo-181" target="bAM_NPrAEhgNnZ6bfNZo-182" edge="1">
          <mxGeometry x="-1080" y="-2044" as="geometry">
            <mxPoint x="125" y="208" as="targetPoint" />
            <mxPoint x="125" y="170" as="sourcePoint" />
          </mxGeometry>
        </mxCell>
        <mxCell id="bAM_NPrAEhgNnZ6bfNZo-189" value="" style="endArrow=open;endFill=1;endSize=12;html=1;rounded=0;exitX=0.5;exitY=1;exitDx=0;exitDy=0;entryX=0.5;entryY=0;entryDx=0;entryDy=0;" parent="bAM_NPrAEhgNnZ6bfNZo-4" source="bAM_NPrAEhgNnZ6bfNZo-182" target="bAM_NPrAEhgNnZ6bfNZo-185" edge="1">
          <mxGeometry width="160" relative="1" as="geometry">
            <mxPoint x="280" y="358" as="sourcePoint" />
            <mxPoint x="440" y="358" as="targetPoint" />
          </mxGeometry>
        </mxCell>
        <mxCell id="bAM_NPrAEhgNnZ6bfNZo-209" value="No&lt;span style=&quot;color: rgba(0, 0, 0, 0); font-family: monospace; font-size: 0px; text-align: start; text-wrap: nowrap;&quot;&gt;%3CmxGraphModel%3E%3Croot%3E%3CmxCell%20id%3D%220%22%2F%3E%3CmxCell%20id%3D%221%22%20parent%3D%220%22%2F%3E%3CmxCell%20id%3D%222%22%20value%3D%22%22%20style%3D%22ellipse%3Bhtml%3D1%3Bshape%3DendState%3BfillColor%3D%23000000%3BstrokeColor%3D%23ff0000%3B%22%20vertex%3D%221%22%20parent%3D%221%22%3E%3CmxGeometry%20x%3D%22935%22%20y%3D%221924%22%20width%3D%2230%22%20height%3D%2230%22%20as%3D%22geometry%22%2F%3E%3C%2FmxCell%3E%3C%2Froot%3E%3C%2FmxGraphModel%3E&lt;/span&gt;" style="text;html=1;align=center;verticalAlign=middle;whiteSpace=wrap;rounded=0;" parent="bAM_NPrAEhgNnZ6bfNZo-4" vertex="1">
          <mxGeometry x="210" y="353" width="60" height="30" as="geometry" />
        </mxCell>
        <mxCell id="bAM_NPrAEhgNnZ6bfNZo-210" value="Yes" style="text;html=1;align=center;verticalAlign=middle;whiteSpace=wrap;rounded=0;" parent="bAM_NPrAEhgNnZ6bfNZo-4" vertex="1">
          <mxGeometry x="210" y="478" width="60" height="30" as="geometry" />
        </mxCell>
        <mxCell id="bAM_NPrAEhgNnZ6bfNZo-15" value="System" style="swimlane;whiteSpace=wrap;startSize=23;" parent="1" vertex="1">
          <mxGeometry x="870" y="1042" width="340" height="932" as="geometry" />
        </mxCell>
        <mxCell id="bAM_NPrAEhgNnZ6bfNZo-26" value="" style="ellipse;html=1;shape=endState;fillColor=#000000;strokeColor=#ff0000;" parent="bAM_NPrAEhgNnZ6bfNZo-15" vertex="1">
          <mxGeometry x="80" y="882" width="30" height="30" as="geometry" />
        </mxCell>
        <mxCell id="bAM_NPrAEhgNnZ6bfNZo-193" style="edgeStyle=orthogonalEdgeStyle;rounded=0;orthogonalLoop=1;jettySize=auto;html=1;exitX=1;exitY=0.5;exitDx=0;exitDy=0;entryX=0;entryY=0.5;entryDx=0;entryDy=0;endArrow=open;endFill=0;" parent="bAM_NPrAEhgNnZ6bfNZo-15" source="bAM_NPrAEhgNnZ6bfNZo-190" target="bAM_NPrAEhgNnZ6bfNZo-13" edge="1">
          <mxGeometry relative="1" as="geometry" />
        </mxCell>
        <mxCell id="bAM_NPrAEhgNnZ6bfNZo-190" value="Save as draft" style="rounded=1;" parent="bAM_NPrAEhgNnZ6bfNZo-15" vertex="1">
          <mxGeometry x="82" y="353" width="140" height="50" as="geometry" />
        </mxCell>
        <mxCell id="bAM_NPrAEhgNnZ6bfNZo-13" value="" style="ellipse;html=1;shape=endState;fillColor=#000000;strokeColor=#ff0000;" parent="bAM_NPrAEhgNnZ6bfNZo-15" vertex="1">
          <mxGeometry x="264" y="363" width="30" height="30" as="geometry" />
        </mxCell>
        <mxCell id="bAM_NPrAEhgNnZ6bfNZo-198" style="edgeStyle=orthogonalEdgeStyle;rounded=0;orthogonalLoop=1;jettySize=auto;html=1;exitX=0.5;exitY=1;exitDx=0;exitDy=0;entryX=0.5;entryY=0;entryDx=0;entryDy=0;endArrow=open;endFill=0;" parent="bAM_NPrAEhgNnZ6bfNZo-15" source="bAM_NPrAEhgNnZ6bfNZo-194" target="bAM_NPrAEhgNnZ6bfNZo-196" edge="1">
          <mxGeometry relative="1" as="geometry" />
        </mxCell>
        <mxCell id="bAM_NPrAEhgNnZ6bfNZo-194" value="Check the integrity &#xa;of information" style="rounded=1;" parent="bAM_NPrAEhgNnZ6bfNZo-15" vertex="1">
          <mxGeometry x="98" y="478" width="140" height="50" as="geometry" />
        </mxCell>
        <mxCell id="bAM_NPrAEhgNnZ6bfNZo-204" style="edgeStyle=orthogonalEdgeStyle;rounded=0;orthogonalLoop=1;jettySize=auto;html=1;exitX=0;exitY=0.5;exitDx=0;exitDy=0;entryX=0.5;entryY=0;entryDx=0;entryDy=0;endArrow=open;endFill=0;" parent="bAM_NPrAEhgNnZ6bfNZo-15" source="bAM_NPrAEhgNnZ6bfNZo-195" target="bAM_NPrAEhgNnZ6bfNZo-200" edge="1">
          <mxGeometry relative="1" as="geometry" />
        </mxCell>
        <mxCell id="bAM_NPrAEhgNnZ6bfNZo-205" style="edgeStyle=orthogonalEdgeStyle;rounded=0;orthogonalLoop=1;jettySize=auto;html=1;exitX=1;exitY=0.5;exitDx=0;exitDy=0;entryX=0.5;entryY=0;entryDx=0;entryDy=0;endArrow=open;endFill=0;" parent="bAM_NPrAEhgNnZ6bfNZo-15" source="bAM_NPrAEhgNnZ6bfNZo-195" target="bAM_NPrAEhgNnZ6bfNZo-202" edge="1">
          <mxGeometry relative="1" as="geometry" />
        </mxCell>
        <mxCell id="bAM_NPrAEhgNnZ6bfNZo-195" value="" style="rhombus;whiteSpace=wrap;html=1;rounded=0;" parent="bAM_NPrAEhgNnZ6bfNZo-15" vertex="1">
          <mxGeometry x="154" y="653" width="30" height="40" as="geometry" />
        </mxCell>
        <mxCell id="bAM_NPrAEhgNnZ6bfNZo-199" style="edgeStyle=orthogonalEdgeStyle;rounded=0;orthogonalLoop=1;jettySize=auto;html=1;exitX=0.5;exitY=1;exitDx=0;exitDy=0;entryX=0.5;entryY=0;entryDx=0;entryDy=0;endArrow=open;endFill=0;" parent="bAM_NPrAEhgNnZ6bfNZo-15" source="bAM_NPrAEhgNnZ6bfNZo-196" target="bAM_NPrAEhgNnZ6bfNZo-195" edge="1">
          <mxGeometry relative="1" as="geometry" />
        </mxCell>
        <mxCell id="bAM_NPrAEhgNnZ6bfNZo-196" value="Is the information &#xa;complete?" style="rounded=1;" parent="bAM_NPrAEhgNnZ6bfNZo-15" vertex="1">
          <mxGeometry x="98" y="558" width="140" height="50" as="geometry" />
        </mxCell>
        <mxCell id="bAM_NPrAEhgNnZ6bfNZo-206" style="edgeStyle=orthogonalEdgeStyle;rounded=0;orthogonalLoop=1;jettySize=auto;html=1;exitX=0.5;exitY=1;exitDx=0;exitDy=0;entryX=0.5;entryY=0;entryDx=0;entryDy=0;endArrow=open;endFill=0;" parent="bAM_NPrAEhgNnZ6bfNZo-15" source="bAM_NPrAEhgNnZ6bfNZo-200" target="bAM_NPrAEhgNnZ6bfNZo-201" edge="1">
          <mxGeometry relative="1" as="geometry" />
        </mxCell>
        <mxCell id="bAM_NPrAEhgNnZ6bfNZo-200" value="Store the dirtary record" style="rounded=1;" parent="bAM_NPrAEhgNnZ6bfNZo-15" vertex="1">
          <mxGeometry x="25" y="738" width="140" height="50" as="geometry" />
        </mxCell>
        <mxCell id="bAM_NPrAEhgNnZ6bfNZo-207" style="edgeStyle=orthogonalEdgeStyle;rounded=0;orthogonalLoop=1;jettySize=auto;html=1;exitX=0.5;exitY=1;exitDx=0;exitDy=0;endArrow=open;endFill=0;" parent="bAM_NPrAEhgNnZ6bfNZo-15" source="bAM_NPrAEhgNnZ6bfNZo-201" edge="1">
          <mxGeometry relative="1" as="geometry">
            <mxPoint x="95.10526315789502" y="878" as="targetPoint" />
          </mxGeometry>
        </mxCell>
        <mxCell id="bAM_NPrAEhgNnZ6bfNZo-201" value="Confirm successful record&#xa; submission" style="rounded=1;" parent="bAM_NPrAEhgNnZ6bfNZo-15" vertex="1">
          <mxGeometry x="25" y="808" width="140" height="50" as="geometry" />
        </mxCell>
        <mxCell id="bAM_NPrAEhgNnZ6bfNZo-208" style="edgeStyle=orthogonalEdgeStyle;rounded=0;orthogonalLoop=1;jettySize=auto;html=1;exitX=0.5;exitY=1;exitDx=0;exitDy=0;entryX=0.5;entryY=0;entryDx=0;entryDy=0;endArrow=open;endFill=0;" parent="bAM_NPrAEhgNnZ6bfNZo-15" source="bAM_NPrAEhgNnZ6bfNZo-202" target="bAM_NPrAEhgNnZ6bfNZo-203" edge="1">
          <mxGeometry relative="1" as="geometry" />
        </mxCell>
        <mxCell id="bAM_NPrAEhgNnZ6bfNZo-202" value="Displays a ‘Missing&#xa; Required Content’ &#xa;message." style="rounded=1;" parent="bAM_NPrAEhgNnZ6bfNZo-15" vertex="1">
          <mxGeometry x="185" y="738" width="140" height="50" as="geometry" />
        </mxCell>
        <mxCell id="bAM_NPrAEhgNnZ6bfNZo-203" value="" style="ellipse;html=1;shape=endState;fillColor=#000000;strokeColor=#ff0000;" parent="bAM_NPrAEhgNnZ6bfNZo-15" vertex="1">
          <mxGeometry x="240" y="818" width="30" height="30" as="geometry" />
        </mxCell>
        <mxCell id="bAM_NPrAEhgNnZ6bfNZo-211" value="Yes" style="text;html=1;align=center;verticalAlign=middle;whiteSpace=wrap;rounded=0;" parent="bAM_NPrAEhgNnZ6bfNZo-15" vertex="1">
          <mxGeometry x="82" y="682" width="60" height="30" as="geometry" />
        </mxCell>
        <mxCell id="bAM_NPrAEhgNnZ6bfNZo-212" value="No&lt;span style=&quot;color: rgba(0, 0, 0, 0); font-family: monospace; font-size: 0px; text-align: start; text-wrap: nowrap;&quot;&gt;%3CmxGraphModel%3E%3Croot%3E%3CmxCell%20id%3D%220%22%2F%3E%3CmxCell%20id%3D%221%22%20parent%3D%220%22%2F%3E%3CmxCell%20id%3D%222%22%20value%3D%22%22%20style%3D%22ellipse%3Bhtml%3D1%3Bshape%3DendState%3BfillColor%3D%23000000%3BstrokeColor%3D%23ff0000%3B%22%20vertex%3D%221%22%20parent%3D%221%22%3E%3CmxGeometry%20x%3D%22935%22%20y%3D%221924%22%20width%3D%2230%22%20height%3D%2230%22%20as%3D%22geometry%22%2F%3E%3C%2FmxCell%3E%3C%2Froot%3E%3C%2FmxGraphModel%3E&lt;/span&gt;" style="text;html=1;align=center;verticalAlign=middle;whiteSpace=wrap;rounded=0;" parent="bAM_NPrAEhgNnZ6bfNZo-15" vertex="1">
          <mxGeometry x="249" y="682" width="60" height="30" as="geometry" />
        </mxCell>
        <mxCell id="bAM_NPrAEhgNnZ6bfNZo-123" value="VIP" style="swimlane;whiteSpace=wrap" parent="1" vertex="1">
          <mxGeometry x="1790" y="1022" width="280" height="908" as="geometry" />
        </mxCell>
        <mxCell id="bAM_NPrAEhgNnZ6bfNZo-238" style="edgeStyle=orthogonalEdgeStyle;rounded=0;orthogonalLoop=1;jettySize=auto;html=1;exitX=0.5;exitY=1;exitDx=0;exitDy=0;entryX=0.5;entryY=0;entryDx=0;entryDy=0;" parent="bAM_NPrAEhgNnZ6bfNZo-123" source="bAM_NPrAEhgNnZ6bfNZo-124" target="bAM_NPrAEhgNnZ6bfNZo-126" edge="1">
          <mxGeometry relative="1" as="geometry" />
        </mxCell>
        <mxCell id="bAM_NPrAEhgNnZ6bfNZo-124" value="" style="ellipse;shape=startState;fillColor=#000000;strokeColor=#ff0000;" parent="bAM_NPrAEhgNnZ6bfNZo-123" vertex="1">
          <mxGeometry x="100" y="40" width="30" height="30" as="geometry" />
        </mxCell>
        <mxCell id="bAM_NPrAEhgNnZ6bfNZo-218" style="edgeStyle=orthogonalEdgeStyle;rounded=0;orthogonalLoop=1;jettySize=auto;html=1;exitX=0.5;exitY=1;exitDx=0;exitDy=0;entryX=0.5;entryY=0;entryDx=0;entryDy=0;" parent="bAM_NPrAEhgNnZ6bfNZo-123" source="bAM_NPrAEhgNnZ6bfNZo-126" target="bAM_NPrAEhgNnZ6bfNZo-127" edge="1">
          <mxGeometry relative="1" as="geometry" />
        </mxCell>
        <mxCell id="bAM_NPrAEhgNnZ6bfNZo-126" value="Select records or &#xa;dates to analyse" style="rounded=1;" parent="bAM_NPrAEhgNnZ6bfNZo-123" vertex="1">
          <mxGeometry x="60" y="110" width="110" height="50" as="geometry" />
        </mxCell>
        <mxCell id="bAM_NPrAEhgNnZ6bfNZo-127" value="Click on the &#xa;Analyse button" style="rounded=1;" parent="bAM_NPrAEhgNnZ6bfNZo-123" vertex="1">
          <mxGeometry x="60" y="192" width="110" height="50" as="geometry" />
        </mxCell>
        <mxCell id="bAM_NPrAEhgNnZ6bfNZo-230" style="edgeStyle=orthogonalEdgeStyle;rounded=0;orthogonalLoop=1;jettySize=auto;html=1;exitX=0.5;exitY=1;exitDx=0;exitDy=0;entryX=0.5;entryY=0;entryDx=0;entryDy=0;" parent="bAM_NPrAEhgNnZ6bfNZo-123" source="bAM_NPrAEhgNnZ6bfNZo-213" target="bAM_NPrAEhgNnZ6bfNZo-219" edge="1">
          <mxGeometry relative="1" as="geometry" />
        </mxCell>
        <mxCell id="bAM_NPrAEhgNnZ6bfNZo-213" value="View analyses and &#xa;recommendations" style="rounded=1;" parent="bAM_NPrAEhgNnZ6bfNZo-123" vertex="1">
          <mxGeometry x="60" y="278" width="110" height="50" as="geometry" />
        </mxCell>
        <mxCell id="bAM_NPrAEhgNnZ6bfNZo-219" value="Select to view &#xa;historical analysis results" style="rounded=1;" parent="bAM_NPrAEhgNnZ6bfNZo-123" vertex="1">
          <mxGeometry x="45" y="388" width="140" height="52" as="geometry" />
        </mxCell>
        <mxCell id="bAM_NPrAEhgNnZ6bfNZo-232" style="edgeStyle=orthogonalEdgeStyle;rounded=0;orthogonalLoop=1;jettySize=auto;html=1;exitX=0.5;exitY=1;exitDx=0;exitDy=0;entryX=0.5;entryY=0;entryDx=0;entryDy=0;" parent="bAM_NPrAEhgNnZ6bfNZo-123" source="bAM_NPrAEhgNnZ6bfNZo-220" target="bAM_NPrAEhgNnZ6bfNZo-222" edge="1">
          <mxGeometry relative="1" as="geometry" />
        </mxCell>
        <mxCell id="bAM_NPrAEhgNnZ6bfNZo-220" value="View historical analysis &#xa;and recommendation &#xa;results" style="rounded=1;" parent="bAM_NPrAEhgNnZ6bfNZo-123" vertex="1">
          <mxGeometry x="45" y="488" width="140" height="52" as="geometry" />
        </mxCell>
        <mxCell id="bAM_NPrAEhgNnZ6bfNZo-233" style="edgeStyle=orthogonalEdgeStyle;rounded=0;orthogonalLoop=1;jettySize=auto;html=1;exitX=0.5;exitY=1;exitDx=0;exitDy=0;entryX=0.5;entryY=0;entryDx=0;entryDy=0;" parent="bAM_NPrAEhgNnZ6bfNZo-123" source="bAM_NPrAEhgNnZ6bfNZo-222" target="bAM_NPrAEhgNnZ6bfNZo-223" edge="1">
          <mxGeometry relative="1" as="geometry" />
        </mxCell>
        <mxCell id="bAM_NPrAEhgNnZ6bfNZo-222" value="Select whether to save&#xa; the analysis results" style="rounded=1;" parent="bAM_NPrAEhgNnZ6bfNZo-123" vertex="1">
          <mxGeometry x="47" y="588" width="135" height="52" as="geometry" />
        </mxCell>
        <mxCell id="bAM_NPrAEhgNnZ6bfNZo-228" style="edgeStyle=orthogonalEdgeStyle;rounded=0;orthogonalLoop=1;jettySize=auto;html=1;exitX=0.5;exitY=1;exitDx=0;exitDy=0;" parent="bAM_NPrAEhgNnZ6bfNZo-123" source="bAM_NPrAEhgNnZ6bfNZo-223" edge="1">
          <mxGeometry relative="1" as="geometry">
            <mxPoint x="115.21739130434798" y="768" as="targetPoint" />
          </mxGeometry>
        </mxCell>
        <mxCell id="bAM_NPrAEhgNnZ6bfNZo-223" value="" style="rhombus;whiteSpace=wrap;html=1;rounded=0;" parent="bAM_NPrAEhgNnZ6bfNZo-123" vertex="1">
          <mxGeometry x="100" y="678" width="30" height="40" as="geometry" />
        </mxCell>
        <mxCell id="bAM_NPrAEhgNnZ6bfNZo-229" value="" style="ellipse;html=1;shape=endState;fillColor=#000000;strokeColor=#ff0000;" parent="bAM_NPrAEhgNnZ6bfNZo-123" vertex="1">
          <mxGeometry x="100" y="768" width="30" height="30" as="geometry" />
        </mxCell>
        <mxCell id="bAM_NPrAEhgNnZ6bfNZo-236" value="Yes" style="text;html=1;align=center;verticalAlign=middle;whiteSpace=wrap;rounded=0;" parent="bAM_NPrAEhgNnZ6bfNZo-123" vertex="1">
          <mxGeometry x="210" y="668" width="60" height="30" as="geometry" />
        </mxCell>
        <mxCell id="bAM_NPrAEhgNnZ6bfNZo-237" value="No" style="text;html=1;align=center;verticalAlign=middle;whiteSpace=wrap;rounded=0;" parent="bAM_NPrAEhgNnZ6bfNZo-123" vertex="1">
          <mxGeometry x="110" y="731.5" width="60" height="30" as="geometry" />
        </mxCell>
        <mxCell id="bAM_NPrAEhgNnZ6bfNZo-128" value="System" style="swimlane;whiteSpace=wrap" parent="1" vertex="1">
          <mxGeometry x="2070" y="1022" width="280" height="908" as="geometry" />
        </mxCell>
        <mxCell id="bAM_NPrAEhgNnZ6bfNZo-216" style="edgeStyle=orthogonalEdgeStyle;rounded=0;orthogonalLoop=1;jettySize=auto;html=1;exitX=0.5;exitY=1;exitDx=0;exitDy=0;entryX=0.5;entryY=0;entryDx=0;entryDy=0;" parent="bAM_NPrAEhgNnZ6bfNZo-128" source="bAM_NPrAEhgNnZ6bfNZo-129" target="bAM_NPrAEhgNnZ6bfNZo-214" edge="1">
          <mxGeometry relative="1" as="geometry" />
        </mxCell>
        <mxCell id="bAM_NPrAEhgNnZ6bfNZo-129" value="Analyse selected&#xa; dietary records" style="rounded=1;" parent="bAM_NPrAEhgNnZ6bfNZo-128" vertex="1">
          <mxGeometry x="85" y="192" width="135" height="52" as="geometry" />
        </mxCell>
        <mxCell id="bAM_NPrAEhgNnZ6bfNZo-214" value="Return to Analyses &#xa;and Recommendations" style="rounded=1;" parent="bAM_NPrAEhgNnZ6bfNZo-128" vertex="1">
          <mxGeometry x="85" y="276" width="135" height="52" as="geometry" />
        </mxCell>
        <mxCell id="bAM_NPrAEhgNnZ6bfNZo-221" value="Display historical data" style="rounded=1;" parent="bAM_NPrAEhgNnZ6bfNZo-128" vertex="1">
          <mxGeometry x="85" y="388" width="135" height="52" as="geometry" />
        </mxCell>
        <mxCell id="bAM_NPrAEhgNnZ6bfNZo-226" style="edgeStyle=orthogonalEdgeStyle;rounded=0;orthogonalLoop=1;jettySize=auto;html=1;exitX=0.5;exitY=1;exitDx=0;exitDy=0;entryX=0.5;entryY=0;entryDx=0;entryDy=0;" parent="bAM_NPrAEhgNnZ6bfNZo-128" source="bAM_NPrAEhgNnZ6bfNZo-224" target="bAM_NPrAEhgNnZ6bfNZo-132" edge="1">
          <mxGeometry relative="1" as="geometry" />
        </mxCell>
        <mxCell id="bAM_NPrAEhgNnZ6bfNZo-224" value="Save analysis results to&#xa; user history" style="rounded=1;" parent="bAM_NPrAEhgNnZ6bfNZo-128" vertex="1">
          <mxGeometry x="85" y="673" width="135" height="52" as="geometry" />
        </mxCell>
        <mxCell id="bAM_NPrAEhgNnZ6bfNZo-132" value="" style="ellipse;html=1;shape=endState;fillColor=#000000;strokeColor=#ff0000;" parent="bAM_NPrAEhgNnZ6bfNZo-128" vertex="1">
          <mxGeometry x="137.5" y="778" width="30" height="30" as="geometry" />
        </mxCell>
        <mxCell id="bAM_NPrAEhgNnZ6bfNZo-136" value="User" style="swimlane;whiteSpace=wrap;startSize=23;" parent="1" vertex="1">
          <mxGeometry x="2930" y="1032" width="280" height="878" as="geometry" />
        </mxCell>
        <mxCell id="bAM_NPrAEhgNnZ6bfNZo-252" style="edgeStyle=orthogonalEdgeStyle;rounded=0;orthogonalLoop=1;jettySize=auto;html=1;exitX=0.5;exitY=1;exitDx=0;exitDy=0;entryX=0.5;entryY=0;entryDx=0;entryDy=0;" parent="bAM_NPrAEhgNnZ6bfNZo-136" source="bAM_NPrAEhgNnZ6bfNZo-137" target="bAM_NPrAEhgNnZ6bfNZo-139" edge="1">
          <mxGeometry relative="1" as="geometry" />
        </mxCell>
        <mxCell id="bAM_NPrAEhgNnZ6bfNZo-137" value="" style="ellipse;shape=startState;fillColor=#000000;strokeColor=#ff0000;" parent="bAM_NPrAEhgNnZ6bfNZo-136" vertex="1">
          <mxGeometry x="129" y="40" width="30" height="30" as="geometry" />
        </mxCell>
        <mxCell id="bAM_NPrAEhgNnZ6bfNZo-250" style="edgeStyle=orthogonalEdgeStyle;rounded=0;orthogonalLoop=1;jettySize=auto;html=1;exitX=0.5;exitY=1;exitDx=0;exitDy=0;entryX=0.5;entryY=0;entryDx=0;entryDy=0;" parent="bAM_NPrAEhgNnZ6bfNZo-136" source="bAM_NPrAEhgNnZ6bfNZo-139" target="bAM_NPrAEhgNnZ6bfNZo-140" edge="1">
          <mxGeometry relative="1" as="geometry" />
        </mxCell>
        <mxCell id="bAM_NPrAEhgNnZ6bfNZo-139" value="Access diet plan" style="rounded=1;" parent="bAM_NPrAEhgNnZ6bfNZo-136" vertex="1">
          <mxGeometry x="89" y="110" width="110" height="50" as="geometry" />
        </mxCell>
        <mxCell id="bAM_NPrAEhgNnZ6bfNZo-251" style="edgeStyle=orthogonalEdgeStyle;rounded=0;orthogonalLoop=1;jettySize=auto;html=1;exitX=0.5;exitY=1;exitDx=0;exitDy=0;entryX=0.5;entryY=0;entryDx=0;entryDy=0;" parent="bAM_NPrAEhgNnZ6bfNZo-136" source="bAM_NPrAEhgNnZ6bfNZo-140" target="bAM_NPrAEhgNnZ6bfNZo-239" edge="1">
          <mxGeometry relative="1" as="geometry" />
        </mxCell>
        <mxCell id="bAM_NPrAEhgNnZ6bfNZo-140" value="View suggested &#xa;meals and portions" style="rounded=1;" parent="bAM_NPrAEhgNnZ6bfNZo-136" vertex="1">
          <mxGeometry x="89" y="192" width="110" height="58" as="geometry" />
        </mxCell>
        <mxCell id="bAM_NPrAEhgNnZ6bfNZo-253" style="edgeStyle=orthogonalEdgeStyle;rounded=0;orthogonalLoop=1;jettySize=auto;html=1;exitX=0.5;exitY=1;exitDx=0;exitDy=0;entryX=0.5;entryY=0;entryDx=0;entryDy=0;" parent="bAM_NPrAEhgNnZ6bfNZo-136" source="bAM_NPrAEhgNnZ6bfNZo-239" target="bAM_NPrAEhgNnZ6bfNZo-243" edge="1">
          <mxGeometry relative="1" as="geometry" />
        </mxCell>
        <mxCell id="bAM_NPrAEhgNnZ6bfNZo-239" value="Set up to complete &#xa;a plan or skip a plan" style="rounded=1;" parent="bAM_NPrAEhgNnZ6bfNZo-136" vertex="1">
          <mxGeometry x="89" y="288" width="110" height="58" as="geometry" />
        </mxCell>
        <mxCell id="bAM_NPrAEhgNnZ6bfNZo-255" style="edgeStyle=orthogonalEdgeStyle;rounded=0;orthogonalLoop=1;jettySize=auto;html=1;exitX=0.5;exitY=1;exitDx=0;exitDy=0;entryX=0.5;entryY=0;entryDx=0;entryDy=0;" parent="bAM_NPrAEhgNnZ6bfNZo-136" source="bAM_NPrAEhgNnZ6bfNZo-243" target="bAM_NPrAEhgNnZ6bfNZo-245" edge="1">
          <mxGeometry relative="1" as="geometry" />
        </mxCell>
        <mxCell id="bAM_NPrAEhgNnZ6bfNZo-243" value="" style="rhombus;whiteSpace=wrap;html=1;rounded=0;" parent="bAM_NPrAEhgNnZ6bfNZo-136" vertex="1">
          <mxGeometry x="129" y="368" width="30" height="40" as="geometry" />
        </mxCell>
        <mxCell id="bAM_NPrAEhgNnZ6bfNZo-245" value="Provide reasons &#xa;for skipping" style="rounded=1;" parent="bAM_NPrAEhgNnZ6bfNZo-136" vertex="1">
          <mxGeometry x="89" y="507" width="110" height="58" as="geometry" />
        </mxCell>
        <mxCell id="bAM_NPrAEhgNnZ6bfNZo-324" value="Complete&lt;span style=&quot;color: rgba(0, 0, 0, 0); font-family: monospace; font-size: 0px; text-align: start; text-wrap: nowrap;&quot;&gt;%3CmxGraphModel%3E%3Croot%3E%3CmxCell%20id%3D%220%22%2F%3E%3CmxCell%20id%3D%221%22%20parent%3D%220%22%2F%3E%3CmxCell%20id%3D%222%22%20value%3D%22Yes%22%20style%3D%22text%3Bhtml%3D1%3Balign%3Dcenter%3BverticalAlign%3Dmiddle%3BwhiteSpace%3Dwrap%3Brounded%3D0%3B%22%20vertex%3D%221%22%20parent%3D%221%22%3E%3CmxGeometry%20x%3D%222000%22%20y%3D%221690%22%20width%3D%2260%22%20height%3D%2230%22%20as%3D%22geometry%22%2F%3E%3C%2FmxCell%3E%3C%2Froot%3E%3C%2FmxGraphModel%3E&lt;/span&gt;" style="text;html=1;align=center;verticalAlign=middle;whiteSpace=wrap;rounded=0;" parent="bAM_NPrAEhgNnZ6bfNZo-136" vertex="1">
          <mxGeometry x="210" y="358" width="60" height="30" as="geometry" />
        </mxCell>
        <mxCell id="bAM_NPrAEhgNnZ6bfNZo-325" value="Skip" style="text;html=1;align=center;verticalAlign=middle;whiteSpace=wrap;rounded=0;" parent="bAM_NPrAEhgNnZ6bfNZo-136" vertex="1">
          <mxGeometry x="150" y="438" width="60" height="30" as="geometry" />
        </mxCell>
        <mxCell id="bAM_NPrAEhgNnZ6bfNZo-141" value="System" style="swimlane;whiteSpace=wrap" parent="1" vertex="1">
          <mxGeometry x="3210" y="1032" width="280" height="878" as="geometry" />
        </mxCell>
        <mxCell id="bAM_NPrAEhgNnZ6bfNZo-240" value="Save status record" style="rounded=1;" parent="bAM_NPrAEhgNnZ6bfNZo-141" vertex="1">
          <mxGeometry x="155" y="359" width="110" height="58" as="geometry" />
        </mxCell>
        <mxCell id="bAM_NPrAEhgNnZ6bfNZo-246" value="Record the reason&#xa; for the skip" style="rounded=1;" parent="bAM_NPrAEhgNnZ6bfNZo-141" vertex="1">
          <mxGeometry x="20" y="507" width="110" height="58" as="geometry" />
        </mxCell>
        <mxCell id="bAM_NPrAEhgNnZ6bfNZo-247" value="Update adherence&#xa; statistics" style="rounded=1;" parent="bAM_NPrAEhgNnZ6bfNZo-141" vertex="1">
          <mxGeometry x="100" y="697" width="110" height="58" as="geometry" />
        </mxCell>
        <mxCell id="bAM_NPrAEhgNnZ6bfNZo-262" value="" style="line;strokeWidth=3;fillColor=none;align=left;verticalAlign=middle;spacingTop=-1;spacingLeft=3;spacingRight=3;rotatable=0;labelPosition=right;points=[];portConstraint=eastwest;strokeColor=inherit;" parent="bAM_NPrAEhgNnZ6bfNZo-141" vertex="1">
          <mxGeometry x="135" y="668" width="40" height="8" as="geometry" />
        </mxCell>
        <mxCell id="bAM_NPrAEhgNnZ6bfNZo-263" style="edgeStyle=orthogonalEdgeStyle;rounded=0;orthogonalLoop=1;jettySize=auto;html=1;exitX=1;exitY=0.5;exitDx=0;exitDy=0;entryX=0.338;entryY=0.05;entryDx=0;entryDy=0;entryPerimeter=0;" parent="bAM_NPrAEhgNnZ6bfNZo-141" edge="1">
          <mxGeometry relative="1" as="geometry">
            <mxPoint x="130" y="537" as="sourcePoint" />
            <mxPoint x="148.51999999999953" y="668.4000000000001" as="targetPoint" />
            <Array as="points">
              <mxPoint x="130" y="538" />
              <mxPoint x="149" y="538" />
              <mxPoint x="149" y="603" />
            </Array>
          </mxGeometry>
        </mxCell>
        <mxCell id="bAM_NPrAEhgNnZ6bfNZo-264" style="edgeStyle=orthogonalEdgeStyle;rounded=0;orthogonalLoop=1;jettySize=auto;html=1;exitX=0.5;exitY=1;exitDx=0;exitDy=0;entryX=0.725;entryY=0.05;entryDx=0;entryDy=0;entryPerimeter=0;" parent="bAM_NPrAEhgNnZ6bfNZo-141" source="bAM_NPrAEhgNnZ6bfNZo-240" target="bAM_NPrAEhgNnZ6bfNZo-262" edge="1">
          <mxGeometry relative="1" as="geometry">
            <Array as="points">
              <mxPoint x="210" y="538" />
              <mxPoint x="164" y="538" />
            </Array>
          </mxGeometry>
        </mxCell>
        <mxCell id="bAM_NPrAEhgNnZ6bfNZo-265" value="" style="endArrow=classicThin;endFill=1;endSize=12;html=1;rounded=0;exitX=0.514;exitY=0.499;exitDx=0;exitDy=0;exitPerimeter=0;entryX=0.5;entryY=0;entryDx=0;entryDy=0;" parent="bAM_NPrAEhgNnZ6bfNZo-141" source="bAM_NPrAEhgNnZ6bfNZo-262" target="bAM_NPrAEhgNnZ6bfNZo-247" edge="1">
          <mxGeometry width="160" relative="1" as="geometry">
            <mxPoint x="30" y="448" as="sourcePoint" />
            <mxPoint x="190" y="448" as="targetPoint" />
          </mxGeometry>
        </mxCell>
        <mxCell id="bAM_NPrAEhgNnZ6bfNZo-191" style="edgeStyle=orthogonalEdgeStyle;rounded=0;orthogonalLoop=1;jettySize=auto;html=1;exitX=1;exitY=0.5;exitDx=0;exitDy=0;entryX=0;entryY=0.5;entryDx=0;entryDy=0;endArrow=open;endFill=0;" parent="1" source="bAM_NPrAEhgNnZ6bfNZo-185" target="bAM_NPrAEhgNnZ6bfNZo-190" edge="1">
          <mxGeometry relative="1" as="geometry" />
        </mxCell>
        <mxCell id="bAM_NPrAEhgNnZ6bfNZo-197" style="edgeStyle=orthogonalEdgeStyle;rounded=0;orthogonalLoop=1;jettySize=auto;html=1;exitX=0.5;exitY=1;exitDx=0;exitDy=0;entryX=0;entryY=0.5;entryDx=0;entryDy=0;endArrow=open;endFill=0;" parent="1" source="bAM_NPrAEhgNnZ6bfNZo-185" target="bAM_NPrAEhgNnZ6bfNZo-194" edge="1">
          <mxGeometry relative="1" as="geometry" />
        </mxCell>
        <mxCell id="bAM_NPrAEhgNnZ6bfNZo-215" style="edgeStyle=orthogonalEdgeStyle;rounded=0;orthogonalLoop=1;jettySize=auto;html=1;exitX=1;exitY=0.5;exitDx=0;exitDy=0;entryX=0;entryY=0.5;entryDx=0;entryDy=0;" parent="1" source="bAM_NPrAEhgNnZ6bfNZo-127" target="bAM_NPrAEhgNnZ6bfNZo-129" edge="1">
          <mxGeometry relative="1" as="geometry" />
        </mxCell>
        <mxCell id="bAM_NPrAEhgNnZ6bfNZo-217" style="edgeStyle=orthogonalEdgeStyle;rounded=0;orthogonalLoop=1;jettySize=auto;html=1;exitX=0;exitY=0.5;exitDx=0;exitDy=0;entryX=1;entryY=0.5;entryDx=0;entryDy=0;" parent="1" source="bAM_NPrAEhgNnZ6bfNZo-214" target="bAM_NPrAEhgNnZ6bfNZo-213" edge="1">
          <mxGeometry relative="1" as="geometry" />
        </mxCell>
        <mxCell id="bAM_NPrAEhgNnZ6bfNZo-225" style="edgeStyle=orthogonalEdgeStyle;rounded=0;orthogonalLoop=1;jettySize=auto;html=1;exitX=1;exitY=0.5;exitDx=0;exitDy=0;entryX=0;entryY=0.5;entryDx=0;entryDy=0;" parent="1" source="bAM_NPrAEhgNnZ6bfNZo-223" target="bAM_NPrAEhgNnZ6bfNZo-224" edge="1">
          <mxGeometry relative="1" as="geometry" />
        </mxCell>
        <mxCell id="bAM_NPrAEhgNnZ6bfNZo-234" style="edgeStyle=orthogonalEdgeStyle;rounded=0;orthogonalLoop=1;jettySize=auto;html=1;exitX=1;exitY=0.5;exitDx=0;exitDy=0;entryX=0;entryY=0.5;entryDx=0;entryDy=0;" parent="1" source="bAM_NPrAEhgNnZ6bfNZo-219" target="bAM_NPrAEhgNnZ6bfNZo-221" edge="1">
          <mxGeometry relative="1" as="geometry" />
        </mxCell>
        <mxCell id="bAM_NPrAEhgNnZ6bfNZo-235" style="edgeStyle=orthogonalEdgeStyle;rounded=0;orthogonalLoop=1;jettySize=auto;html=1;exitX=0.5;exitY=1;exitDx=0;exitDy=0;entryX=1;entryY=0.5;entryDx=0;entryDy=0;" parent="1" source="bAM_NPrAEhgNnZ6bfNZo-221" target="bAM_NPrAEhgNnZ6bfNZo-220" edge="1">
          <mxGeometry relative="1" as="geometry" />
        </mxCell>
        <mxCell id="bAM_NPrAEhgNnZ6bfNZo-254" style="edgeStyle=orthogonalEdgeStyle;rounded=0;orthogonalLoop=1;jettySize=auto;html=1;exitX=1;exitY=0.5;exitDx=0;exitDy=0;entryX=0;entryY=0.5;entryDx=0;entryDy=0;" parent="1" source="bAM_NPrAEhgNnZ6bfNZo-243" target="bAM_NPrAEhgNnZ6bfNZo-240" edge="1">
          <mxGeometry relative="1" as="geometry" />
        </mxCell>
        <mxCell id="bAM_NPrAEhgNnZ6bfNZo-256" style="edgeStyle=orthogonalEdgeStyle;rounded=0;orthogonalLoop=1;jettySize=auto;html=1;exitX=1;exitY=0.5;exitDx=0;exitDy=0;entryX=0;entryY=0.5;entryDx=0;entryDy=0;" parent="1" source="bAM_NPrAEhgNnZ6bfNZo-245" target="bAM_NPrAEhgNnZ6bfNZo-246" edge="1">
          <mxGeometry relative="1" as="geometry" />
        </mxCell>
        <mxCell id="bAM_NPrAEhgNnZ6bfNZo-249" value="" style="ellipse;html=1;shape=endState;fillColor=#000000;strokeColor=#ff0000;" parent="1" vertex="1">
          <mxGeometry x="3350" y="1836" width="30" height="30" as="geometry" />
        </mxCell>
        <mxCell id="bAM_NPrAEhgNnZ6bfNZo-260" style="edgeStyle=orthogonalEdgeStyle;rounded=0;orthogonalLoop=1;jettySize=auto;html=1;exitX=0.5;exitY=1;exitDx=0;exitDy=0;entryX=0.5;entryY=0;entryDx=0;entryDy=0;" parent="1" source="bAM_NPrAEhgNnZ6bfNZo-247" target="bAM_NPrAEhgNnZ6bfNZo-249" edge="1">
          <mxGeometry relative="1" as="geometry" />
        </mxCell>
        <mxCell id="bAM_NPrAEhgNnZ6bfNZo-266" value="Uploader" style="swimlane;whiteSpace=wrap;startSize=23;" parent="1" vertex="1">
          <mxGeometry x="3820" y="1022" width="280" height="948" as="geometry" />
        </mxCell>
        <mxCell id="bAM_NPrAEhgNnZ6bfNZo-267" style="edgeStyle=orthogonalEdgeStyle;rounded=0;orthogonalLoop=1;jettySize=auto;html=1;exitX=0.5;exitY=1;exitDx=0;exitDy=0;entryX=0.5;entryY=0;entryDx=0;entryDy=0;" parent="bAM_NPrAEhgNnZ6bfNZo-266" source="bAM_NPrAEhgNnZ6bfNZo-268" target="bAM_NPrAEhgNnZ6bfNZo-270" edge="1">
          <mxGeometry relative="1" as="geometry" />
        </mxCell>
        <mxCell id="bAM_NPrAEhgNnZ6bfNZo-268" value="" style="ellipse;shape=startState;fillColor=#000000;strokeColor=#ff0000;" parent="bAM_NPrAEhgNnZ6bfNZo-266" vertex="1">
          <mxGeometry x="100" y="40" width="30" height="30" as="geometry" />
        </mxCell>
        <mxCell id="bAM_NPrAEhgNnZ6bfNZo-269" style="edgeStyle=orthogonalEdgeStyle;rounded=0;orthogonalLoop=1;jettySize=auto;html=1;exitX=0.5;exitY=1;exitDx=0;exitDy=0;entryX=0.5;entryY=0;entryDx=0;entryDy=0;" parent="bAM_NPrAEhgNnZ6bfNZo-266" source="bAM_NPrAEhgNnZ6bfNZo-274" target="bAM_NPrAEhgNnZ6bfNZo-272" edge="1">
          <mxGeometry relative="1" as="geometry" />
        </mxCell>
        <mxCell id="bAM_NPrAEhgNnZ6bfNZo-270" value="Edit diet plan" style="rounded=1;" parent="bAM_NPrAEhgNnZ6bfNZo-266" vertex="1">
          <mxGeometry x="60" y="110" width="110" height="50" as="geometry" />
        </mxCell>
        <mxCell id="bAM_NPrAEhgNnZ6bfNZo-272" value="Click the &quot;Publish&quot;&#xa;button" style="rounded=1;" parent="bAM_NPrAEhgNnZ6bfNZo-266" vertex="1">
          <mxGeometry x="60" y="288" width="110" height="58" as="geometry" />
        </mxCell>
        <mxCell id="i3MEenrC_LAnaFNyF50J-1" value="" style="edgeStyle=orthogonalEdgeStyle;rounded=0;orthogonalLoop=1;jettySize=auto;html=1;exitX=0.5;exitY=1;exitDx=0;exitDy=0;entryX=0.5;entryY=0;entryDx=0;entryDy=0;" parent="bAM_NPrAEhgNnZ6bfNZo-266" source="bAM_NPrAEhgNnZ6bfNZo-270" target="bAM_NPrAEhgNnZ6bfNZo-274" edge="1">
          <mxGeometry relative="1" as="geometry">
            <mxPoint x="3935" y="1182" as="sourcePoint" />
            <mxPoint x="3945" y="1400" as="targetPoint" />
          </mxGeometry>
        </mxCell>
        <mxCell id="bAM_NPrAEhgNnZ6bfNZo-274" value="Set privacy &#xa;permissions" style="rounded=1;" parent="bAM_NPrAEhgNnZ6bfNZo-266" vertex="1">
          <mxGeometry x="60" y="190" width="110" height="58" as="geometry" />
        </mxCell>
        <mxCell id="bAM_NPrAEhgNnZ6bfNZo-278" value="System" style="swimlane;whiteSpace=wrap" parent="1" vertex="1">
          <mxGeometry x="4100" y="1022" width="280" height="948" as="geometry" />
        </mxCell>
        <mxCell id="bAM_NPrAEhgNnZ6bfNZo-298" value="Diet plan to be &#xa;reviewed" style="rounded=1;" parent="bAM_NPrAEhgNnZ6bfNZo-278" vertex="1">
          <mxGeometry x="85" y="288" width="110" height="58" as="geometry" />
        </mxCell>
        <mxCell id="bAM_NPrAEhgNnZ6bfNZo-322" style="edgeStyle=orthogonalEdgeStyle;rounded=0;orthogonalLoop=1;jettySize=auto;html=1;exitX=0.5;exitY=1;exitDx=0;exitDy=0;entryX=0.5;entryY=0;entryDx=0;entryDy=0;" parent="bAM_NPrAEhgNnZ6bfNZo-278" source="bAM_NPrAEhgNnZ6bfNZo-303" target="bAM_NPrAEhgNnZ6bfNZo-321" edge="1">
          <mxGeometry relative="1" as="geometry" />
        </mxCell>
        <mxCell id="bAM_NPrAEhgNnZ6bfNZo-303" value="Submit the updates &#xa;plan" style="rounded=1;" parent="bAM_NPrAEhgNnZ6bfNZo-278" vertex="1">
          <mxGeometry x="85" y="718" width="110" height="58" as="geometry" />
        </mxCell>
        <mxCell id="bAM_NPrAEhgNnZ6bfNZo-305" value="Remove the diet &#xa;plan " style="rounded=1;" parent="bAM_NPrAEhgNnZ6bfNZo-278" vertex="1">
          <mxGeometry x="85" y="843" width="110" height="58" as="geometry" />
        </mxCell>
        <mxCell id="bAM_NPrAEhgNnZ6bfNZo-315" value="" style="line;strokeWidth=3;fillColor=none;align=left;verticalAlign=middle;spacingTop=-1;spacingLeft=3;spacingRight=3;rotatable=0;labelPosition=right;points=[];portConstraint=eastwest;strokeColor=inherit;" parent="bAM_NPrAEhgNnZ6bfNZo-278" vertex="1">
          <mxGeometry x="120" y="688" width="40" height="8" as="geometry" />
        </mxCell>
        <mxCell id="bAM_NPrAEhgNnZ6bfNZo-320" value="" style="endArrow=classic;endFill=1;endSize=12;html=1;rounded=0;exitX=0.497;exitY=0.481;exitDx=0;exitDy=0;exitPerimeter=0;entryX=0.5;entryY=0;entryDx=0;entryDy=0;" parent="bAM_NPrAEhgNnZ6bfNZo-278" source="bAM_NPrAEhgNnZ6bfNZo-315" target="bAM_NPrAEhgNnZ6bfNZo-303" edge="1">
          <mxGeometry width="160" relative="1" as="geometry">
            <mxPoint x="110" y="648" as="sourcePoint" />
            <mxPoint x="270" y="648" as="targetPoint" />
          </mxGeometry>
        </mxCell>
        <mxCell id="bAM_NPrAEhgNnZ6bfNZo-321" value="" style="ellipse;html=1;shape=endState;fillColor=#000000;strokeColor=#ff0000;" parent="bAM_NPrAEhgNnZ6bfNZo-278" vertex="1">
          <mxGeometry x="125" y="798" width="30" height="30" as="geometry" />
        </mxCell>
        <mxCell id="bAM_NPrAEhgNnZ6bfNZo-326" value="Approve" style="text;html=1;align=center;verticalAlign=middle;whiteSpace=wrap;rounded=0;" parent="bAM_NPrAEhgNnZ6bfNZo-278" vertex="1">
          <mxGeometry x="210" y="459" width="60" height="30" as="geometry" />
        </mxCell>
        <mxCell id="bAM_NPrAEhgNnZ6bfNZo-288" value="" style="ellipse;html=1;shape=endState;fillColor=#000000;strokeColor=#ff0000;" parent="1" vertex="1">
          <mxGeometry x="4225" y="1938" width="30" height="30" as="geometry" />
        </mxCell>
        <mxCell id="bAM_NPrAEhgNnZ6bfNZo-290" value="Administrator" style="swimlane;whiteSpace=wrap" parent="1" vertex="1">
          <mxGeometry x="4380" y="1022" width="280" height="948" as="geometry" />
        </mxCell>
        <mxCell id="bAM_NPrAEhgNnZ6bfNZo-339" style="edgeStyle=orthogonalEdgeStyle;rounded=0;orthogonalLoop=1;jettySize=auto;html=1;entryX=0.5;entryY=0;entryDx=0;entryDy=0;" parent="bAM_NPrAEhgNnZ6bfNZo-290" source="bAM_NPrAEhgNnZ6bfNZo-291" target="bAM_NPrAEhgNnZ6bfNZo-338" edge="1">
          <mxGeometry relative="1" as="geometry" />
        </mxCell>
        <mxCell id="bAM_NPrAEhgNnZ6bfNZo-291" value="Review the plan&#xa; details" style="rounded=1;" parent="bAM_NPrAEhgNnZ6bfNZo-290" vertex="1">
          <mxGeometry x="85" y="288" width="110" height="58" as="geometry" />
        </mxCell>
        <mxCell id="bAM_NPrAEhgNnZ6bfNZo-307" style="edgeStyle=orthogonalEdgeStyle;rounded=0;orthogonalLoop=1;jettySize=auto;html=1;exitX=1;exitY=0.5;exitDx=0;exitDy=0;entryX=0.5;entryY=0;entryDx=0;entryDy=0;" parent="bAM_NPrAEhgNnZ6bfNZo-290" source="bAM_NPrAEhgNnZ6bfNZo-300" target="bAM_NPrAEhgNnZ6bfNZo-304" edge="1">
          <mxGeometry relative="1" as="geometry" />
        </mxCell>
        <mxCell id="bAM_NPrAEhgNnZ6bfNZo-311" style="edgeStyle=orthogonalEdgeStyle;rounded=0;orthogonalLoop=1;jettySize=auto;html=1;exitX=0.5;exitY=1;exitDx=0;exitDy=0;entryX=0.5;entryY=0;entryDx=0;entryDy=0;" parent="bAM_NPrAEhgNnZ6bfNZo-290" source="bAM_NPrAEhgNnZ6bfNZo-300" target="bAM_NPrAEhgNnZ6bfNZo-301" edge="1">
          <mxGeometry relative="1" as="geometry" />
        </mxCell>
        <mxCell id="bAM_NPrAEhgNnZ6bfNZo-300" value="" style="rhombus;whiteSpace=wrap;html=1;rounded=0;" parent="bAM_NPrAEhgNnZ6bfNZo-290" vertex="1">
          <mxGeometry x="125" y="472" width="30" height="40" as="geometry" />
        </mxCell>
        <mxCell id="bAM_NPrAEhgNnZ6bfNZo-309" style="edgeStyle=orthogonalEdgeStyle;rounded=0;orthogonalLoop=1;jettySize=auto;html=1;exitX=0.5;exitY=1;exitDx=0;exitDy=0;" parent="bAM_NPrAEhgNnZ6bfNZo-290" source="bAM_NPrAEhgNnZ6bfNZo-301" edge="1">
          <mxGeometry relative="1" as="geometry">
            <mxPoint x="-130" y="688" as="targetPoint" />
          </mxGeometry>
        </mxCell>
        <mxCell id="bAM_NPrAEhgNnZ6bfNZo-301" value="Make changes to &#xa;the diet plan" style="rounded=1;" parent="bAM_NPrAEhgNnZ6bfNZo-290" vertex="1">
          <mxGeometry x="10" y="562" width="110" height="58" as="geometry" />
        </mxCell>
        <mxCell id="bAM_NPrAEhgNnZ6bfNZo-304" value="Confirm the deletion" style="rounded=1;" parent="bAM_NPrAEhgNnZ6bfNZo-290" vertex="1">
          <mxGeometry x="160" y="562" width="110" height="58" as="geometry" />
        </mxCell>
        <mxCell id="bAM_NPrAEhgNnZ6bfNZo-336" value="Edit&lt;span style=&quot;color: rgba(0, 0, 0, 0); font-family: monospace; font-size: 0px; text-align: start; text-wrap: nowrap;&quot;&gt;%3CmxGraphModel%3E%3Croot%3E%3CmxCell%20id%3D%220%22%2F%3E%3CmxCell%20id%3D%221%22%20parent%3D%220%22%2F%3E%3CmxCell%20id%3D%222%22%20value%3D%22Approve%22%20style%3D%22text%3Bhtml%3D1%3Balign%3Dcenter%3BverticalAlign%3Dmiddle%3BwhiteSpace%3Dwrap%3Brounded%3D0%3B%22%20vertex%3D%221%22%20parent%3D%221%22%3E%3CmxGeometry%20x%3D%224310%22%20y%3D%221410%22%20width%3D%2260%22%20height%3D%2230%22%20as%3D%22geometry%22%2F%3E%3C%2FmxCell%3E%3C%2Froot%3E%3C%2FmxGraphModel%3E&lt;/span&gt;" style="text;html=1;align=center;verticalAlign=middle;whiteSpace=wrap;rounded=0;" parent="bAM_NPrAEhgNnZ6bfNZo-290" vertex="1">
          <mxGeometry x="65" y="512" width="60" height="30" as="geometry" />
        </mxCell>
        <mxCell id="bAM_NPrAEhgNnZ6bfNZo-337" value="Delete" style="text;html=1;align=center;verticalAlign=middle;whiteSpace=wrap;rounded=0;" parent="bAM_NPrAEhgNnZ6bfNZo-290" vertex="1">
          <mxGeometry x="210" y="512" width="60" height="30" as="geometry" />
        </mxCell>
        <mxCell id="bAM_NPrAEhgNnZ6bfNZo-340" style="edgeStyle=orthogonalEdgeStyle;rounded=0;orthogonalLoop=1;jettySize=auto;html=1;exitX=0.5;exitY=1;exitDx=0;exitDy=0;entryX=0.5;entryY=0;entryDx=0;entryDy=0;" parent="bAM_NPrAEhgNnZ6bfNZo-290" source="bAM_NPrAEhgNnZ6bfNZo-338" target="bAM_NPrAEhgNnZ6bfNZo-300" edge="1">
          <mxGeometry relative="1" as="geometry" />
        </mxCell>
        <mxCell id="bAM_NPrAEhgNnZ6bfNZo-338" value="View feedback &#xa;and comments" style="rounded=1;" parent="bAM_NPrAEhgNnZ6bfNZo-290" vertex="1">
          <mxGeometry x="85" y="378" width="110" height="58" as="geometry" />
        </mxCell>
        <mxCell id="bAM_NPrAEhgNnZ6bfNZo-306" style="edgeStyle=orthogonalEdgeStyle;rounded=0;orthogonalLoop=1;jettySize=auto;html=1;exitX=0.5;exitY=1;exitDx=0;exitDy=0;entryX=1;entryY=0.5;entryDx=0;entryDy=0;" parent="1" source="bAM_NPrAEhgNnZ6bfNZo-304" target="bAM_NPrAEhgNnZ6bfNZo-305" edge="1">
          <mxGeometry relative="1" as="geometry" />
        </mxCell>
        <mxCell id="bAM_NPrAEhgNnZ6bfNZo-314" style="edgeStyle=orthogonalEdgeStyle;rounded=0;orthogonalLoop=1;jettySize=auto;html=1;exitX=1;exitY=0.5;exitDx=0;exitDy=0;entryX=0;entryY=0.5;entryDx=0;entryDy=0;" parent="1" source="bAM_NPrAEhgNnZ6bfNZo-298" target="bAM_NPrAEhgNnZ6bfNZo-291" edge="1">
          <mxGeometry relative="1" as="geometry" />
        </mxCell>
        <mxCell id="bAM_NPrAEhgNnZ6bfNZo-312" style="edgeStyle=orthogonalEdgeStyle;rounded=0;orthogonalLoop=1;jettySize=auto;html=1;exitX=0;exitY=0.5;exitDx=0;exitDy=0;entryX=0.25;entryY=0;entryDx=0;entryDy=0;entryPerimeter=0;" parent="1" source="bAM_NPrAEhgNnZ6bfNZo-300" target="bAM_NPrAEhgNnZ6bfNZo-315" edge="1">
          <mxGeometry relative="1" as="geometry">
            <mxPoint x="4230" y="1650" as="targetPoint" />
          </mxGeometry>
        </mxCell>
        <mxCell id="bAM_NPrAEhgNnZ6bfNZo-318" style="edgeStyle=orthogonalEdgeStyle;rounded=0;orthogonalLoop=1;jettySize=auto;html=1;exitX=0.5;exitY=1;exitDx=0;exitDy=0;entryX=0.5;entryY=0;entryDx=0;entryDy=0;" parent="1" source="bAM_NPrAEhgNnZ6bfNZo-305" target="bAM_NPrAEhgNnZ6bfNZo-288" edge="1">
          <mxGeometry relative="1" as="geometry" />
        </mxCell>
        <mxCell id="i3MEenrC_LAnaFNyF50J-2" style="edgeStyle=orthogonalEdgeStyle;rounded=0;orthogonalLoop=1;jettySize=auto;html=1;entryX=0;entryY=0.5;entryDx=0;entryDy=0;" parent="1" source="bAM_NPrAEhgNnZ6bfNZo-272" target="bAM_NPrAEhgNnZ6bfNZo-298" edge="1">
          <mxGeometry relative="1" as="geometry" />
        </mxCell>
      </root>
    </mxGraphModel>
  </diagram>
</mxfile>
